<svg id="Layer_1" data-name="Layer 1" xmlns="http://www.w3.org/2000/svg" viewBox="0 0 881.62 401.62"><defs><style>.cls-1{fill:#50bfa5;}.cls-2{fill:#3c8f7c;}.cls-3{fill:#466eb6;}.cls-4{fill:#355389;}.cls-5{fill:#184655;}.cls-6{fill:#f47458;}.cls-7{fill:#f7a491;}.cls-8{fill:#fae0b2;}.cls-9{fill:#f7cc7f;}.cls-10{fill:#f47257;}.cls-11{fill:#07345a;}.cls-12{fill:#fe875e;}.cls-13{fill:#f8a492;}.cls-14{fill:#13375b;}.cls-15{fill:#b75742;}.cls-16{fill:#fff;}.cls-17{fill:#f57258;}.cls-18{fill:#52bea7;}.cls-19{fill:#efefef;}</style></defs><path class="cls-1" d="M390.57,728.42s-91.12-78.61-102.26-110,15.63-26.21,15.63-26.21-35.08-57.09-23.69-74.49,31.2,7,31.2,7-13.17-75.05,2.64-78.17c29.46-5.81,48.16,75.25,48.16,75.25s0-33.16,17.82-27.56C407,502.71,388,572.89,388,572.89s9.94-26.24,24.17-13.29C437.69,582.84,390.57,728.42,390.57,728.42Z" transform="translate(-250.38 -331.19)"/><path class="cls-2" d="M412.16,559.6c-14.23-13-24.17,13.29-24.17,13.29s19-70.18-7.92-78.63c-17.85-5.6-17.82,27.56-17.82,27.56s-18.7-81.06-48.16-75.25l76.42,281.88C396.82,711.89,436,581.31,412.16,559.6Z" transform="translate(-250.38 -331.19)"/><path class="cls-3" d="M410,728.4s-102.19,1.65-120.3-17.18C276.51,697.47,300,686.3,300,686.3s-44.68-27.5-43-43.83,17.19-12,17.19-12-30.14-30.67-22.69-44.13c11.44-20.69,63.94,29.52,63.94,29.52s-11.82-23.29,2.58-25.78c21.7-3.74,39.52,58.44,39.52,58.44s-8.48-28,6-24.06C389.64,631.57,410,728.4,410,728.4Z" transform="translate(-250.38 -331.19)"/><path class="cls-4" d="M251.57,586.31c-7.45,13.46,22.69,44.13,22.69,44.13s-15.47-4.3-17.19,12,43,43.83,43,43.83-32.89,11.12-12.84,27.88C312.79,735.57,410,728.4,410,728.4Z" transform="translate(-250.38 -331.19)"/><path class="cls-1" d="M434.47,728.65s-78.57,1.78-89.52.76.89-11,.89-11-24.42,1.43-28.28-4.43,6.07-8.43,6.07-8.43-20-8.67-18.92-13.87c1.94-9.7,24.44-1.85,24.44-1.85s-9.46-4.87-5.5-9.47c6-6.93,24.3,8.84,24.3,8.84s-4.37-16.13,1.88-16.27C365,672.54,434.47,728.65,434.47,728.65Z" transform="translate(-250.38 -331.19)"/><path class="cls-1" d="M621.45,694.49,650.11,633s1.66-4.75,16.82,7.3,15.16,36.14,15.16,36.14,8.78-28.94,22.37-28.94c7.09,0-3,47.21-3,47.21s9.67-17.32,18.44-17.32-4.78,21.71-4.78,21.71,16.13-11.31,26.5-10-9.84,20.09-9.84,20.09,26.07-12.82,31.74-3.24c3,5-31.91,7.86-31.91,7.86l-120.05.3Z" transform="translate(-250.38 -331.19)"/><path class="cls-4" d="M670.59,711.36l-277.81.11c-9.27,0-17.09-5.44-18.2-12.69L320.66,347.72c-.9-5.83,5-10.91,12.5-10.7L603,344.76c6,.18,10.88,3.73,11.61,8.39Z" transform="translate(-250.38 -331.19)"/><path class="cls-5" d="M347.74,347.58l243.86,7c6,.17,10.88,3.73,11.61,8.39L656,701.24l-268.11.11L335.24,358.28C334.34,352.44,340.28,347.36,347.74,347.58Z" transform="translate(-250.38 -331.19)"/><path class="cls-6" d="M503.64,346.92a2.34,2.34,0,1,1-2.34-2.28A2.32,2.32,0,0,1,503.64,346.92Z" transform="translate(-250.38 -331.19)"/><path class="cls-7" d="M568.59,655.42a63,63,0,0,1-6.84,8.43c-.21.2-1.6.65-1.82.84-1.94,6.16.56,11.39,3.24,15.51.45-3.34.77-7.9,1.28-8.46a67.27,67.27,0,0,1,9.24-9.49C570.72,660.57,570.37,658.31,568.59,655.42Z" transform="translate(-250.38 -331.19)"/><path class="cls-6" d="M561.58,664c-2.21.13-6.36,1.5-6.34,1.94s2.39,18.68,5.26,20.28c1.72,1,2-1.87,2.67-6C560.49,676.08,560.22,664.53,561.58,664Z" transform="translate(-250.38 -331.19)"/><path class="cls-7" d="M523,646.93a82.8,82.8,0,0,1-9.73,5c-.27.09-1.72-.1-2,0-4.39,4.74-4.35,10.54-3.67,15.41,1.82-2.83,4.05-6.82,4.75-7.11a89.17,89.17,0,0,1,12.3-4.13C522.64,653.34,523.35,650.3,523,646.93Z" transform="translate(-250.38 -331.19)"/><path class="cls-7" d="M573.34,524.74s6.95-13.1,8-17.79,4.6-28.3,4.3-29.82-5.94-5.19-5.25-6.48,6.07-1.29,7.3-1.18a11.11,11.11,0,0,1,4.76,1.7c1.06.87-1.19,29.17-1.86,35.27s-10.87,26.05-10.87,26.05Z" transform="translate(-250.38 -331.19)"/><path class="cls-7" d="M542.06,543.66s-14.18,22.71-16.66,27.17-11.71,15.84-12.17,16.38-10.23.06-10,1.19,4.76,0,4.85,1.34-7.72,9.77-6.94,10.11c1.46.63,5-5,5.6-4.56s-4.2,5.53-3.41,6.62,4.12-5.26,4.74-5.18-2.34,6.38-1,6.44c.74,0,2.51-5.67,3.22-5.17s0,5.08.88,5,.06-3.91,1.38-5.95,1.22-4.18,4.25-6.81,14.78-10.66,19-17.74,13.71-22.73,13.71-22.73Z" transform="translate(-250.38 -331.19)"/><path class="cls-2" d="M576,577.44l-24.63,7.94s13.55,23,16.23,27.63,14.21,15.93,14.22,18.9c0,2.1-10.85,16-17.41,24.52,1.48,2.75,5.53,6.29,8.09,7.86,10.92-10.34,26.83-26.65,27.13-32C600,624.48,576,577.44,576,577.44Z" transform="translate(-250.38 -331.19)"/><path class="cls-6" d="M513,652c-2-.81-6.39-1.34-6.55-.93s-5.8,17.91-3.88,20.58c1.15,1.6,2.64-.82,5-4.27C506.89,662.48,511.57,651.91,513,652Z" transform="translate(-250.38 -331.19)"/><path class="cls-1" d="M570.9,591.66c.31-1.52,2.34-6,3.39-9.52a19.43,19.43,0,0,0,.47-9.06h0l-18.12-.85-.7,1.35a10.74,10.74,0,0,1-3.1,3.72c-2.72,2.05-7.48,6.56-7.33,12.82.2,8.74,6.42,40.78,4.35,42-3.73,2.17-19.31,9.74-28.61,14.41.13,3.38,1.08,8.21,2.85,11.13,7.36-2.82,33.27-14.29,38.09-17.1C564.37,639.27,570.37,594.24,570.9,591.66Z" transform="translate(-250.38 -331.19)"/><path class="cls-6" d="M527.12,489.7c1.44,3.8-.83,6.63-2.41,10.37-1.06,2.51,1.28,6.49,3.92,8.33,6.7,4.65,8.27,4.77,7.79,11.08-1.17,15.21,17,8.73,19.94,8.25s5.14-.36,6.53-1.32c4.22-2.92,8.17-11.67,7.43-19s-9.53-4.84-11.53-8.23,4.06-7.6-1.11-13.25c-14.86-16.24-30.36-5.35-30.92.86A6.7,6.7,0,0,0,527.12,489.7Z" transform="translate(-250.38 -331.19)"/><path class="cls-8" d="M578.15,543.43s5.06-12,5.87-14c0,0-7.06-6.28-11.28-5.79,0,0-5.46,8.57-8.68,8.88s-14.54.8-16.52,2-10.41,13.86-10.41,13.86,7.57,7.59,10.61,7.57c0,0,2.07-5.12,2.78-4.19s3.5,20.83,4.92,22.35,17.16,6.75,21.74,5.76c0,0,2.47-19.15,2.33-30.94A24.22,24.22,0,0,0,578.15,543.43Z" transform="translate(-250.38 -331.19)"/><path class="cls-7" d="M556.07,526.88s1.79,5.9,1.8,8.3,1.93,10,7,9.45-.05-9.84-.77-12.12a90.64,90.64,0,0,1-1.57-9.47Z" transform="translate(-250.38 -331.19)"/><path class="cls-6" d="M563,526.64c-.28-2-.48-3.6-.48-3.6l-6.42,3.84s.37,1.2.77,2.75A5.92,5.92,0,0,0,563,526.64Z" transform="translate(-250.38 -331.19)"/><path class="cls-7" d="M551.89,510.5a8.41,8.41,0,0,0-3.08,4.94c-.63,3.22,1.29,11.17,8.2,12.43s9.17-5.44,7.27-10.29S558.72,506.72,551.89,510.5Z" transform="translate(-250.38 -331.19)"/><path class="cls-7" d="M564.92,515.56c0,1.35-.63,2.46-1.42,2.46s-1.43-1.09-1.44-2.45.63-2.45,1.42-2.46S564.91,514.2,564.92,515.56Z" transform="translate(-250.38 -331.19)"/><path class="cls-7" d="M551.82,522.31c.91,1.09,1,2.47.31,3.09s-2.07.23-3-.86-1-2.48-.32-3.09S550.91,521.22,551.82,522.31Z" transform="translate(-250.38 -331.19)"/><path class="cls-9" d="M544.8,450.3l17.11,9.86a3,3,0,0,1,1.51,2.41L565,482.29a3.05,3.05,0,0,0,5.1,2L584.75,471a3.06,3.06,0,0,1,2.76-.71l19.21,4.56a3.07,3.07,0,0,0,3.5-4.23l-8-18.06a3.09,3.09,0,0,1,.18-2.85l10.31-16.9a3.05,3.05,0,0,0-2.92-4.64l-19.64,2.11a3,3,0,0,1-2.65-1.05l-12.83-15a3.06,3.06,0,0,0-5.31,1.37L565.22,435a3.08,3.08,0,0,1-1.82,2.19l-18.24,7.63A3.07,3.07,0,0,0,544.8,450.3Z" transform="translate(-250.38 -331.19)"/><path class="cls-10" d="M585.17,470.72a4.23,4.23,0,0,0-.42.32l-.77.69h0a3.53,3.53,0,0,1,3,.87S586.75,471.7,585.17,470.72Z" transform="translate(-250.38 -331.19)"/><path class="cls-7" d="M584.48,473.46l-.43-1.72a9.87,9.87,0,0,1-3.12-.5l-1.21-.52a.73.73,0,0,0-1,.4h0a.75.75,0,0,0,.22.86s3.26,2.68,4.4,3.49c.56.4,2.35,1.49,2.35,1.49l1-1.94Z" transform="translate(-250.38 -331.19)"/><path class="cls-11" d="M1096.78,732.82H306.46a2.35,2.35,0,1,1,0-4.7h790.32a2.35,2.35,0,1,1,0,4.7Z" transform="translate(-250.38 -331.19)"/><path class="cls-7" d="M1027.4,710.05s-2.5,2.47-2.56,3.38-.22,10.62.8,11.52,4,1.55,3,2.57c-.73.78-6.33.61-10,.4-1.08-.06-2.44-8.82-2.87-10.11-.62-1.87-2.87-5.94-2.3-7.24.27-.64,2.32-2.09,4.19-3.3a17.47,17.47,0,0,0,3.83-4.14Z" transform="translate(-250.38 -331.19)"/><path class="cls-7" d="M1060.82,716.12s-2.24,6.4-2.24,6.42c-.16,1-.82,3.52-.82,4.44,0,3.46,15.41-2.94,12-4.48a3.75,3.75,0,0,1-1.4-2.43c-.16-1.81,1.3-4.09,1.3-4.09Z" transform="translate(-250.38 -331.19)"/><path class="cls-5" d="M1086.55,595.06s1.16,10.59,1.16,10.76c0,18.57,2.17,54.84,1.48,58.33-1.68,8.51-20.08,54.85-20.08,54.85l-9.53-1.36,12.77-54.73-4.7-20.94L1061,600.6Z" transform="translate(-250.38 -331.19)"/><path class="cls-4" d="M1050.62,604.33l-1.86,10.88-5,44.76-24.62,45.44s3.7,5.68,7.68,6.58l35-45.92,18.94-57.49-.67-12.77Z" transform="translate(-250.38 -331.19)"/><path class="cls-7" d="M1090.14,479.67a24.86,24.86,0,0,0,1.52,2.15s-2.78,29.78-3,31.65l-8.47,12.81,9.49,7s9.66-15.47,9.75-16.23-.31-23.06-.31-23.06-.71-11.57-.71-12.15,1.7-4.3,2-5.8a49.36,49.36,0,0,0,.4-5.68l-.71-1-3.29-.72-2.33.26s-5.37,2.18-5.58,2.87a36.13,36.13,0,0,0,.49,5.88A11.59,11.59,0,0,0,1090.14,479.67Z" transform="translate(-250.38 -331.19)"/><path class="cls-12" d="M1091.18,474.07a10.39,10.39,0,0,0,1.36,2.24c.82,1,2.44.73,3.39-.54a8.61,8.61,0,0,0,1.31-2.52Z" transform="translate(-250.38 -331.19)"/><path class="cls-9" d="M1064.53,448.09l18.52,5.43a3,3,0,0,1,2,1.93l6,18.39a3,3,0,0,0,5.31.75l10.88-16a3,3,0,0,1,2.46-1.31l19.3-.09a3,3,0,0,0,2.35-4.83L1119.58,437a3,3,0,0,1-.48-2.74l5.9-18.45a3,3,0,0,0-3.85-3.73L1103,418.66a3,3,0,0,1-2.76-.39L1084.57,407a3,3,0,0,0-4.73,2.52l.56,19.36a3,3,0,0,1-1.22,2.5L1063.6,442.8A3,3,0,0,0,1064.53,448.09Z" transform="translate(-250.38 -331.19)"/><path class="cls-7" d="M1091.16,474.17c0-.65-.06-2-.06-2s1.37-2.69,1.06-2.87c-1.1-.63-3.25,2.4-3.25,2.4S1091,476.27,1091.16,474.17Z" transform="translate(-250.38 -331.19)"/><path class="cls-7" d="M1100.38,475.93s1.49-5.59.85-7.16c-.42-1-5.94-3.2-6.65-2.22s4.66,2.74,4.5,2.95-4-2.2-4.7-1.71,3.61,3.22,3.41,3.64c-.13.27-2.58-2.29-2.84-1.15S1100.38,475.93,1100.38,475.93Z" transform="translate(-250.38 -331.19)"/><path class="cls-1" d="M1086.71,588.6l-1.93-26.47h0c-.62-6.53-.86-11.75-.33-13.63,1.12-4,9.35-17.47,9.35-17.47s-7.89-8.78-13.48-8.78c0,0-6.19,11.93-13.55,13s-5.78,1.1-8.78,1.42a35.22,35.22,0,0,0-9.54,2.05c-5.63,2.35-1.39,23.4-.75,26.83,1,5.17-.85,48.78-.85,48.78s16.14,3.63,40.88-8.48Z" transform="translate(-250.38 -331.19)"/><path class="cls-7" d="M1059.5,525.08l-1.75,11.79s6.47,13.74,10.35,12.54c3.26-1,1.21-13.59,1.21-13.59s-1.73-6.3-1.2-9.6S1059.5,525.08,1059.5,525.08Z" transform="translate(-250.38 -331.19)"/><path class="cls-12" d="M1060.75,528.64a26,26,0,0,0,7.54,2.27,16.49,16.49,0,0,1-.18-4.69c.24-1.52-1.57-1.88-3.6-1.83-2.65.24-5,.69-5,.69l-.34,2.26A5.39,5.39,0,0,0,1060.75,528.64Z" transform="translate(-250.38 -331.19)"/><path class="cls-7" d="M1051.09,511.47c-.27,0,2.63,13.18,7.13,15.44s11.21,1.09,12.47-2.46c1.39-3.92-3.69-17.37-10-19.07S1051.09,511.47,1051.09,511.47Z" transform="translate(-250.38 -331.19)"/><path class="cls-9" d="M1007.39,601.11l19.11,2.67a3,3,0,0,1,2.26,1.62l8.64,17.32a3,3,0,0,0,5.36,0l8.44-17.42a3,3,0,0,1,2.24-1.65l19.08-2.9a3,3,0,0,0,1.63-5.12l-13.9-13.44a3,3,0,0,1-.87-2.64l3.15-19.11a3,3,0,0,0-4.35-3.14l-17,9.12a3,3,0,0,1-2.78,0l-17.13-8.91a3,3,0,0,0-4.32,3.19l3.37,19.07a3,3,0,0,1-.84,2.66L1005.71,596A3,3,0,0,0,1007.39,601.11Z" transform="translate(-250.38 -331.19)"/><path class="cls-13" d="M1032.8,560.47s-5.76,7.81-6.11,9.18,2.17,33.79,2.3,36.65c0,0-1.06,3.46-1.66,5.65s-.87,3.83-.57,4.26,1.23.13,1.6,1,1.43.69,1.76.86,1.32,1.4,1.68,1.36a2.39,2.39,0,0,1,1.28.1,2.18,2.18,0,0,0,1.6.62,2,2,0,0,0,1.12-.56s-.59-6-.16-5.94a2.75,2.75,0,0,1,1.68.88c.15.36.08,1.18.23,1.54a1,1,0,0,0,1.1.57c.45-.15.38-2.19.38-2.19a6.62,6.62,0,0,0-.66-2.65c-2.08-3.4-2.53-2.92-2.79-3.36-.14-.21,0-8.61,0-8.61s.83-23.85.92-25.14l6.07-9Z" transform="translate(-250.38 -331.19)"/><path class="cls-1" d="M1030.41,560.56l12.15,9.13s6.63-10,10.19-13.57c4.46-4.46-1.81-18.63-4.5-17.36C1041.63,541.9,1030.41,560.56,1030.41,560.56Z" transform="translate(-250.38 -331.19)"/><path class="cls-14" d="M1056.3,499.36a15,15,0,0,0-5.8,6.84c-1.69.85-3.73,2.7-4.71,7.68-1.2,6.12,3.08,10.84,7.62,12.26s5.31,4.62,5.31,4.62l.45-3.45a14,14,0,0,0-2.53-4.51c-1.52-1.5.72-3.69.92-5.48.15-1.37-.8-4.05-.6-6.3l.55-1.87s1.8-2.87,4.46-3.22S1060.91,496.53,1056.3,499.36Z" transform="translate(-250.38 -331.19)"/><path class="cls-7" d="M1058.21,519.62c.59,1.52.35,3-.54,3.37s-2.07-.61-2.66-2.14-.35-3,.53-3.37S1057.62,518.09,1058.21,519.62Z" transform="translate(-250.38 -331.19)"/><path class="cls-2" d="M1017.79,707.2s5.76,16.44,8,17.23c.6.21,3.47.75,4,2a5.47,5.47,0,0,1,0,1.69h-12s-1.52-7.24-2.12-10.42c0,0-3.18-7.78-2.82-8.48S1017.79,707.2,1017.79,707.2Z" transform="translate(-250.38 -331.19)"/><path class="cls-2" d="M1056.88,728.12l1.77-5.65s3.71,1.59,5.56,1.33,5.47-1.33,5.47-1.33c7.4,2.47,13.46,3.67,12.36,5.65h-25.16Z" transform="translate(-250.38 -331.19)"/><path class="cls-7" d="M422.17,481.89a7.86,7.86,0,0,0-2.61,2.52c-1.35,2.1-3.62,5.61-3.91,6-2.57,3.22-10,10.9-10,10.9l7.17,2.2,14-15.73s6.11-5.94,5.08-5.76c-.44.08-5.95,4.14-6.05,3.89,0-.06,7.43-6,6.14-6.37-.35-.09-6.51,4.54-6.83,4.43-.14-.05,6.11-4.36,4.94-4.83-.59-.23-5.54,3.23-5.91,3.15s4.49-3.65,3.38-3.42A61.18,61.18,0,0,0,422.17,481.89Z" transform="translate(-250.38 -331.19)"/><path class="cls-9" d="M403.76,476.22l18.67,4.85a3,3,0,0,1,2.06,1.88l6.58,18.19a3,3,0,0,0,5.32.59l10.4-16.32a3,3,0,0,1,2.42-1.38l19.28-.68a3,3,0,0,0,2.21-4.9l-12.25-14.94a3,3,0,0,1-.56-2.73l5.33-18.61a3,3,0,0,0-4-3.62l-18,7.09a3,3,0,0,1-2.76-.31l-16-10.82a3,3,0,0,0-4.65,2.66L419,456.5a3,3,0,0,1-1.15,2.54L402.66,471A3,3,0,0,0,403.76,476.22Z" transform="translate(-250.38 -331.19)"/><path class="cls-7" d="M431.15,696.6s-2.31,10.86-2.06,13.25c.36,3.44,16.69-4.26,13.09-5.43-.82-.27-3.44-1.31-3.65-1.46-1.11-.8-.8-5.92-.8-5.92Z" transform="translate(-250.38 -331.19)"/><path class="cls-15" d="M450,650.54c.58-3.32-10.13-42.32-16.09-54.31l-15-2.24,1.56,24.17c3.77,1.09,14.54,37.43,14.54,37.43l-5.23,42.82,9,.54S448.63,658.16,450,650.54Z" transform="translate(-250.38 -331.19)"/><path class="cls-6" d="M426.3,597.65l-17.72-.82-5.74,2.38c-.79.35,3.33,49.73,2.31,51.15-.57.79-14.29,9.07-22.84,14.33l1.87,12.23c13.34-5.67,33.47-16.72,36.26-20.4,1.11-3.06,2.91-35.79,3.5-41.53.27-2.56,6.48-17.29,6.48-17.29Z" transform="translate(-250.38 -331.19)"/><path class="cls-16" d="M437.91,543.8l-9.36-.45s-7.39-1.05-8.3-1.2-11.32,27.13-14.74,37.48S403,594.18,403,594.18s5.7,4.53,16,6.27c8.09,1.36,17-4.88,17-4.88s2.24-20.43,1.77-27.06S437.91,543.8,437.91,543.8Z" transform="translate(-250.38 -331.19)"/><path class="cls-7" d="M428.57,538.08l-.38,5.33s1,8-1.08,9-6.39-10.18-6.39-10.18l2.21-13.49Z" transform="translate(-250.38 -331.19)"/><path class="cls-6" d="M428.3,541.78c-2.83-1.46-6-6.09-5.37-13l5.64,9.27Z" transform="translate(-250.38 -331.19)"/><path class="cls-7" d="M434.53,519.56a4.85,4.85,0,0,1,3.23,4.57,41.91,41.91,0,0,1-.4,7.11c-.74,5.18-5,8.78-7.52,8.36s-7.8-3.88-6.85-11.25c.41-3.16.94-7.31,4.05-8.58A11.49,11.49,0,0,1,434.53,519.56Z" transform="translate(-250.38 -331.19)"/><path class="cls-1" d="M418.34,497.14a1.09,1.09,0,0,1-.13,1.41c-2,2.46-10.95,16-10.92,16.08.14.48.54,1.82.78,2.42,3,7.28,12.65,25.15,12.65,25.15L419.39,604a.61.61,0,0,1-.54.59,88.06,88.06,0,0,1-10.51.73c-8.81-.32-15.68-6.9-15.49-9.44s6.12-11.79,9.06-27.5c1.84-9.87,3.24-20.84,3.24-20.84s-1.6-4.82-2.13-6.32c-3.28-9.21-8.91-26.26-8.47-27.64C396,508.9,409.4,494,411.33,491.9,412.65,490.5,416.76,495.21,418.34,497.14Z" transform="translate(-250.38 -331.19)"/><path class="cls-9" d="M449.35,705.37,439,703a13.51,13.51,0,0,1-9.53,2.34,9.79,9.79,0,0,0-1.12,5.89,99,99,0,0,0,14,0,28.92,28.92,0,0,0,10-2.2C457.38,706.9,449.35,705.37,449.35,705.37Z" transform="translate(-250.38 -331.19)"/><path class="cls-9" d="M422,534s-6-10.52-4.47-16.62,8.06-7.54,12.82-6.2a33.62,33.62,0,0,1,5.66,2.14c4.52,2.11,6.91,5.18,4.59,8.71-3.11,4.74-11.48-2.78-14-1.8-2.08.8-.43,4.86-2.42,5.57s-1.13.58-1.33,2.93A51.28,51.28,0,0,1,422,534Z" transform="translate(-250.38 -331.19)"/><path class="cls-7" d="M421,525.92c-.25,1.5.29,2.84,1.19,3s1.84-.95,2.09-2.45-.29-2.84-1.19-3S421.25,524.42,421,525.92Z" transform="translate(-250.38 -331.19)"/><path class="cls-7" d="M431.16,484.92a2.43,2.43,0,0,0-2.39.75l-1.72,1.95a1.73,1.73,0,0,1-1.24.59l-3.55.17-3.45,7.68,3.77-3.7a4.14,4.14,0,0,1,2.63-1.17l1.88-.3a2.69,2.69,0,0,0,1.53-1l2.92-4.12A.6.6,0,0,0,431.16,484.92Z" transform="translate(-250.38 -331.19)"/><path class="cls-7" d="M453.5,480.86v4.88a29.11,29.11,0,0,0,2.05,4.43,12,12,0,0,0,1.59,1.36,1.76,1.76,0,0,1,.61,1.43l-.44,7.37,6.78,1.23.06-10,1-4v-4.12l-9.35.32Z" transform="translate(-250.38 -331.19)"/><path class="cls-7" d="M458.66,486.93l-3.11,3.24-2.05-4.43s-.93-6-.67-6.24a1.41,1.41,0,0,1,1.75.44,18.77,18.77,0,0,1,1.17,3.79l2.91,1.87Z" transform="translate(-250.38 -331.19)"/><path class="cls-17" d="M455.84,483.79l1.35.85a4.81,4.81,0,0,1,1.93,2.42l.24.67.07-1.06a4.42,4.42,0,0,0-.59-2.54l-.25-.43Z" transform="translate(-250.38 -331.19)"/><path class="cls-17" d="M426.16,487.59a4.23,4.23,0,0,1-.6.15,7.24,7.24,0,0,1-1.27-.3,8.19,8.19,0,0,0,.92.69,1.66,1.66,0,0,0,1.14,0Z" transform="translate(-250.38 -331.19)"/><path class="cls-18" d="M456,500.18c-.56,1.76-5.05,25.75-5.05,25.75s-22.83,17.18-22.75,17.37l.15.37c.36.12,1.21.61,2.38,2.42,1.64,2.53,4.3,6.13,4.55,16,0,.68-1.11,34.65-1.11,34.65l.92,2,1.52,3.66c1.05.44,4.15.8,4.63.25,1-1.13,1-9.31.67-16-.61-11.22-2.66-28.68-2.49-30.9.45-1.24,22.29-20.89,22.29-20.89a1.15,1.15,0,0,0,.35-.67c.3-2,1.61-10.78,1.7-11.24A161.3,161.3,0,0,0,466,502C464.33,498.58,456.4,498.8,456,500.18Z" transform="translate(-250.38 -331.19)"/><path class="cls-6" d="M600.12,394.85a6.84,6.84,0,0,1,3-5,5.3,5.3,0,0,1,7.48,1.46c1.91,2.8,1.71,7.78-2.69,15-8.34,1.48-13.05-.14-15-2.94a5.3,5.3,0,0,1,1.34-7.5A6.9,6.9,0,0,1,600.12,394.85Z" transform="translate(-250.38 -331.19)"/><path class="cls-6" d="M638.4,343.36a6,6,0,0,1,5.12-.62,4.65,4.65,0,0,1,3,6c-.9,2.83-4.45,5.38-11.82,6.22-5.52-5-6.93-9.1-6-11.92a4.64,4.64,0,0,1,5.91-3.11A6,6,0,0,1,638.4,343.36Z" transform="translate(-250.38 -331.19)"/><path class="cls-6" d="M640.3,375a9.39,9.39,0,0,1,8.16-1.23c4.2,1.3,6,5.72,4.73,9.82-1.47,4.75-7.15,9.15-18.92,10.87-8.73-8.06-10.94-14.9-9.47-19.65,1.27-4.11,5.26-6.74,9.46-5.44A9.43,9.43,0,0,1,640.3,375Z" transform="translate(-250.38 -331.19)"/><path class="cls-1" d="M912,384.69c-1.18,2.2-.67,4.78,1.16,5.82s4.39.11,5.64-2.1.76-4.86-1.11-5.92a3.4,3.4,0,0,0-1.55-.43l3.75-6.12,7.77,8.18-6.42,10.47h0l0,0c-1.26,2.21-.76,4.86,1.1,5.92s4.39.11,5.64-2.1.76-4.87-1.1-5.92a3.48,3.48,0,0,0-1.56-.43l6.87-11.21a.88.88,0,0,0-.06-1.07l-10-10a.78.78,0,0,0-1.2.27L912,384.69Z" transform="translate(-250.38 -331.19)"/><path class="cls-2" d="M943.68,365.3c.81,3.18,3.6,5.23,6.3,4.6s4.36-3.8,3.6-7.06-3.61-5.4-6.35-4.76a4.39,4.39,0,0,0-1.89,1l-1.83-9.29,14.83,1,3.12,15.88h0a.09.09,0,0,1,0,0c.76,3.27,3.61,5.39,6.35,4.75s4.35-3.8,3.59-7.06-3.6-5.4-6.34-4.76a4.39,4.39,0,0,0-1.89,1l-3.35-17a1.14,1.14,0,0,0-1-1l-18.59-.76a1,1,0,0,0-.93,1.33l4.35,22.1Z" transform="translate(-250.38 -331.19)"/><path class="cls-4" d="M928.74,728.51H548c-10.87,0-19.69-7.66-19.69-17.11v-.17H948.62C948.62,720.77,939.72,728.51,928.74,728.51Z" transform="translate(-250.38 -331.19)"/><path class="cls-3" d="M740.8,728.51H407.43a17.18,17.18,0,0,1-17.24-17.11v-.17h368A17.34,17.34,0,0,1,740.8,728.51Z" transform="translate(-250.38 -331.19)"/><path class="cls-11" d="M709,507.59s-4-4.2-7.19.91a3.18,3.18,0,0,0-4.2,1.08s-4.46-1.34-5.54,5.33c0,0-2.3-.43-2.6,2.3a6.77,6.77,0,0,0,1.08,4.54s-1.29,1-.7,3.48a3.12,3.12,0,0,0,2.26,2.46s.48,3.59,2,4.67a5.06,5.06,0,0,0,3.68.57,2.39,2.39,0,0,0,2.38,1.77c1.82-.17,4.07-1.9,6.11-1.12s7.32-.05,7.32-.05,5.93-2.64,4.16-8.7a4.44,4.44,0,0,0,.39-6.2s2-5.28-1.95-8.4S709,507.59,709,507.59Z" transform="translate(-250.38 -331.19)"/><path class="cls-7" d="M662.63,466.67l-2.09,7.82-1,13.84,7.55,1.6s0-8.86,1.61-10.64a20.28,20.28,0,0,0,3.13-4.52C672.75,471.79,662.63,466.67,662.63,466.67Z" transform="translate(-250.38 -331.19)"/><path class="cls-6" d="M671.51,473l-4.46,5.48a2.14,2.14,0,0,1-3.91-.92l-.54-3.81S669,470.23,671.51,473Z" transform="translate(-250.38 -331.19)"/><path class="cls-9" d="M702.7,463.13l-19.39-1.91a3,3,0,0,0-2.6,1l-12.48,14.63A3,3,0,0,1,663,475.6l-4.27-18.73a3,3,0,0,0-1.82-2.11l-18.07-7.26a3,3,0,0,1-.42-5.31l16.75-9.67a2.89,2.89,0,0,0,1.47-2.34l1.32-19.12a3,3,0,0,1,5-2l14.63,12.75a3.05,3.05,0,0,0,2.72.67l18.89-4.56a3,3,0,0,1,3.5,4.08L695,439.56a2.92,2.92,0,0,0,.21,2.76l10.36,16.3A3,3,0,0,1,702.7,463.13Z" transform="translate(-250.38 -331.19)"/><path class="cls-7" d="M669.37,476.23l-1-2.53s-2-2.66-1.19-3.4c1.36-1.22,4.39,3,4.39,3S671.39,476.54,669.37,476.23Z" transform="translate(-250.38 -331.19)"/><path class="cls-7" d="M660.54,474.49s.42-5.49.58-5.63c.89-.74,3.44-1.77,4.2-1.27s-1.72,3-1.72,3a2,2,0,0,1,1.17,1.59C664.8,473.26,660.54,474.49,660.54,474.49Z" transform="translate(-250.38 -331.19)"/><path class="cls-7" d="M743.47,473.2l.5,8.08L742.18,495l-7.72.08s1.72-8.69.54-10.76a20.18,20.18,0,0,1-2.17-5C732.54,476.21,743.47,473.2,743.47,473.2Z" transform="translate(-250.38 -331.19)"/><path class="cls-6" d="M733.5,477.66l3.29,6.26a2.13,2.13,0,0,0,4-.13l1.3-3.63S736.56,475.43,733.5,477.66Z" transform="translate(-250.38 -331.19)"/><path class="cls-9" d="M709.91,465.69l16.48,1.68a2.59,2.59,0,0,1,2,1.3L736.31,483a2.59,2.59,0,0,0,4.6-.19l6.72-14.89a2.57,2.57,0,0,1,1.87-1.46l16.29-3a2.5,2.5,0,0,0,1.24-4.35L754.7,448.2a2.48,2.48,0,0,1-.83-2.2L756,429.85a2.55,2.55,0,0,0-3.82-2.51l-14.34,8.16a2.59,2.59,0,0,1-2.39.1l-15-7a2.56,2.56,0,0,0-3.61,2.81l3.47,15.93a2.51,2.51,0,0,1-.65,2.26l-11.38,11.84A2.51,2.51,0,0,0,709.91,465.69Z" transform="translate(-250.38 -331.19)"/><path class="cls-7" d="M681.55,683.6s-4.35,5.38-5.43,6,.48,8.48,3.43,9c1.66.29,2.58-1.53,2.58-1.53l-.47-2.26,6.2-6.39Z" transform="translate(-250.38 -331.19)"/><path class="cls-7" d="M703.91,684.92s-3.62,5.9-4.61,6.69,1.56,8.35,4.55,8.49c1.69.07,2.37-1.86,2.37-1.86l-.76-2.17,5.33-7.13Z" transform="translate(-250.38 -331.19)"/><path class="cls-11" d="M699.52,691.38a47.11,47.11,0,0,0,3.21,3.71,39.28,39.28,0,0,0,3.34,2.69s2.12,3.85,2.7,5.2c1.3,3,2.75,6.33,2.54,8-.07.54-1.28,1.11-2.29.8-4.19-1.29-14.91-11.1-16.26-13.73C691.19,695,699.52,691.38,699.52,691.38Z" transform="translate(-250.38 -331.19)"/><path class="cls-15" d="M730.12,601.63c-.39-1.09-.76-2.1-1.12-3-4.46,1-9.5,2-14.68,3.15l-.63,19c0-1.47,3.89,30.29,3.89,30.29s-9.16,22.07-16,35.06c2.82,3.53,3.57,4,7.66,6.43,10.69-12.81,24.36-35.4,24.94-39.3C734.47,651,734.77,614.71,730.12,601.63Z" transform="translate(-250.38 -331.19)"/><path class="cls-6" d="M690.32,607.12c1.36,14.8,4.39,43.1,4.14,45.37-.76,2.84-13.69,29-16.12,32.83,1.93,2.9,4.77,5.63,8,6.5.64.17,22.47-31.07,23.68-33.58,1.37-2.84,3.66-18.34,3.7-37.51l.63-19C705.69,603.57,697.75,605.38,690.32,607.12Z" transform="translate(-250.38 -331.19)"/><path class="cls-16" d="M718.67,539.66l-10.16,1.39s-8.15.2-9.16.2-7.39,37.08-9.24,51-.41,16.42-.41,16.42,12.88,2.9,22.41,2c9.92-.88,21.07-6.23,21.07-6.23S721.69,578.33,720,570,718.67,539.66,718.67,539.66Z" transform="translate(-250.38 -331.19)"/><path class="cls-3" d="M743.31,494.75s.66,27.64-.39,29.75c-1.51,3.08-18.58,24.89-18.58,24.89s8.15,34.11,11.58,45.89c.35,1.19,1.87,8.85,1.87,9.6,0,1.66-7.21,3.76-8.06,3.64s-7.06-32.57-11.08-48.45a45.48,45.48,0,0,0-6.89-15l-2.79-4,21.44-21.49s2.64-23.92,2.64-25.9C733.05,493.19,742.27,492.8,743.31,494.75Z" transform="translate(-250.38 -331.19)"/><path class="cls-3" d="M699.72,541.2,673,514s-3.73-25.76-4-26.73-6.9-1.47-9.58-1.73c-.86-.08.45,27.44,1.73,32,1.51,5.45,21.72,30.28,21.72,30.28s3.62,13.45,2.75,23.32c-1.45,16.38-5.36,38.92-4.66,39.63,4.35,2.73,21,3,22.08,1.33C714.7,593.34,699.72,541.2,699.72,541.2Z" transform="translate(-250.38 -331.19)"/><path class="cls-7" d="M708.31,536.11l.72,5.35s1.62,7.71-.46,9.2-8.84-9.42-8.84-9.42l.71-13.56Z" transform="translate(-250.38 -331.19)"/><path class="cls-6" d="M700.21,532.08a15.4,15.4,0,0,0,8.71,8.57l-.61-4.54-7.87-8.43Z" transform="translate(-250.38 -331.19)"/><path class="cls-11" d="M689.38,518.47c0,2.06,1.17,3.74,2.62,3.74s2.63-1.68,2.63-3.74-1.18-3.74-2.63-3.74S689.38,516.4,689.38,518.47Z" transform="translate(-250.38 -331.19)"/><path class="cls-11" d="M697.25,510.43c0,1.19,1.43,2.15,3.19,2.15s3.19-1,3.19-2.15-1.43-2.15-3.19-2.15S697.25,509.24,697.25,510.43Z" transform="translate(-250.38 -331.19)"/><path class="cls-7" d="M705.25,513.44a7.16,7.16,0,0,1,9.36,5.7,54.41,54.41,0,0,1,.58,6.86c.11,6.25-3.12,12.34-6,12.34s-10.69-4.05-11-12.92C698.09,519.94,700.82,515,705.25,513.44Z" transform="translate(-250.38 -331.19)"/><path class="cls-7" d="M700.35,526.12a2.08,2.08,0,1,1-2-2.5A2.3,2.3,0,0,1,700.35,526.12Z" transform="translate(-250.38 -331.19)"/><path class="cls-11" d="M717.54,510.33c2.94,2.32,4,5.85,2.3,7.88s-5.39,1.79-8.32-.53-4-5.85-2.3-7.88S714.61,508,717.54,510.33Z" transform="translate(-250.38 -331.19)"/><path class="cls-11" d="M709.88,512.23c0,1-1.22,1.83-2.72,1.83s-2.72-.82-2.72-1.83,1.21-1.82,2.72-1.82S709.88,511.22,709.88,512.23Z" transform="translate(-250.38 -331.19)"/><path class="cls-11" d="M718,520a2.33,2.33,0,1,1-2.33-2.35A2.34,2.34,0,0,1,718,520Z" transform="translate(-250.38 -331.19)"/><path class="cls-7" d="M735,481.23l1.44-2.29s2.5-2.21,1.84-3.09c-1.09-1.47-4.9,2.09-4.9,2.09S732.93,481.13,735,481.23Z" transform="translate(-250.38 -331.19)"/><path class="cls-7" d="M744,481.28s.67-5.47.54-5.63c-.72-.91-3-2.42-3.86-2.08s1.1,3.25,1.1,3.25a2,2,0,0,0-1.47,1.33C740,479.22,744,481.28,744,481.28Z" transform="translate(-250.38 -331.19)"/><path class="cls-11" d="M676.37,689.44a45.46,45.46,0,0,0,2.71,4.08,38.27,38.27,0,0,0,3,3.1s1.61,4.09,2,5.5c.9,3.13,1.92,6.92,1.5,8.55-.14.53-1.29,1.53-2.25.91-3.67-2.39-13.5-13.61-14.5-16.39C667.65,692,676.37,689.44,676.37,689.44Z" transform="translate(-250.38 -331.19)"/><path class="cls-14" d="M835.41,543.69c-1.69-4.09-3.42-8.18-7.82-10.24a9.84,9.84,0,0,0-10.45,1.33c-9,6.75-1.15,14.17-11.36,27-3.17,4-7,7.18-8.91,11.84-2.66,6.51.51,9.64,5.59,12.76,24.29,14.93,37-15.72,36.57-22.74C838.69,558.38,836.5,546.31,835.41,543.69Z" transform="translate(-250.38 -331.19)"/><path class="cls-7" d="M850,679.65a69.82,69.82,0,0,1-3.34,10.71c-.12.27-1.24,1.22-1.37,1.5.35,6.67,4.45,10.76,8.33,13.72-.75-3.39-2.53-7.3-2.26-8a95.83,95.83,0,0,1,5.67-13.24C853.77,683.81,852.66,681.76,850,679.65Z" transform="translate(-250.38 -331.19)"/><path class="cls-4" d="M835,600.42l-20.68,15.71s10.24,9.85,14.08,13.51S856,650.36,856.32,651.2c.25.62-5.39,20.22-9,30.68,2.19,2.24,7,4.43,9.85,5.15,7.17-13.68,16-37,16-40.2C873.12,641.66,835,600.42,835,600.42Z" transform="translate(-250.38 -331.19)"/><path class="cls-7" d="M777,631.76c.67.66,5.17,9.41,6.87,14.09,2.5-1.58,4-3.45,6.81-4.51-2.2-3.19-6.5-10.87-6.86-12.7-.83-4.33-1.82-5-1.82-5s-14.53,4.92-15.5,6.29S774.31,629.11,777,631.76Z" transform="translate(-250.38 -331.19)"/><path class="cls-2" d="M784,629.61c1.13,0-.09-5.1-.35-6.27a2.19,2.19,0,0,0-1.25-1.76c-.51-.13-16.66,5.33-19.39,7.3a3.45,3.45,0,0,0-.57.64c-1.49,2.79,11.82,3.32,13.74,2.1C777.9,630.54,779,629.59,784,629.61Z" transform="translate(-250.38 -331.19)"/><path class="cls-3" d="M839.46,605.06l-18.05-7.29c.07,0-.11.73-.12.78-1.7,6.6-10.73,4.05-14.46,15.5-2.63,8.09-6.49,38.35-6.49,38.35s-2.74-5.2-11.23-14.77c-.66-.74-9,5-9,5,6.23,16.5,21.51,29.91,23.58,29,14-6.42,30.77-57,30.74-57C836,611.48,839.46,605.06,839.46,605.06Z" transform="translate(-250.38 -331.19)"/><path class="cls-7" d="M840.13,551.81s8.46-13.41,9.94-17.86,0-25.7-.13-27.21-5.26-5.64-4.45-6.82,7.87-2.16,9.06-1.93,3.49,0,4.43,1c.12.12-2.25,5.72-2.2,6.58.34,5.92,3.7,24.76,2.6,29.86-1.27,5.86-13.84,24.58-13.84,24.58Z" transform="translate(-250.38 -331.19)"/><path class="cls-7" d="M809.38,559.62s-22.65.56-27.62,1-23-1.1-23.72-1.18-5.32-7.91-6.09-7.07,2.58,3.89,1.54,4.67-12.13-1-12-.15c.27,1.53,6.75,1.34,6.74,2.08s-6.77-.42-7.23.81,6.51.5,6.79,1-6.47,1.56-5.78,2.7c.38.62,6-1,6-.19s-4.11,2.78-3.61,3.45,3.2-2.07,5.58-2.11,4.06-1.27,7.85-.23,16.68,6.24,24.76,5.86,25.92-1.18,25.92-1.18Z" transform="translate(-250.38 -331.19)"/><path class="cls-1" d="M842.63,583.27c.3-3.74.83-13.82.66-15.06,1.13-3.88,5.25-9.63,6.12-11.26,0,0-5.6-6.33-9.75-6.28,0,0-4.41,5.57-7.68,7.28a8.27,8.27,0,0,1-1.65.49c-3.16,0-14.21-.36-16.27.26l1.17,17.07c.59,1,1.31,20.61,2.54,22.22s19,9,22,7.08C839.83,605,842,590.82,842.63,583.27Z" transform="translate(-250.38 -331.19)"/><path class="cls-1" d="M819.81,559.09c-2-1-16.92-.94-16.92-.94s-2.06,10.27-.4,12.74c0,0,13.19,2,12.81,3Z" transform="translate(-250.38 -331.19)"/><path class="cls-7" d="M823.12,552.15s1.15,5.93.92,8.26.87,9.87,5.82,9.89.94-9.57.47-11.86a88.85,88.85,0,0,1-.57-9.38Z" transform="translate(-250.38 -331.19)"/><path class="cls-6" d="M829.86,552.62c-.08-1.94-.1-3.56-.1-3.56l-6.64,3.09s.24,1.21.47,2.76A5.8,5.8,0,0,0,829.86,552.62Z" transform="translate(-250.38 -331.19)"/><path class="cls-7" d="M820.7,535.81a8.25,8.25,0,0,0-3.49,4.49c-.93,3.07.13,11,6.73,12.91s9.46-4.36,8.1-9.27S827.73,532.82,820.7,535.81Z" transform="translate(-250.38 -331.19)"/><path class="cls-7" d="M832.87,542c-.13,1.31-.86,2.32-1.63,2.25s-1.28-1.21-1.15-2.53.85-2.32,1.62-2.25S833,540.72,832.87,542Z" transform="translate(-250.38 -331.19)"/><path class="cls-2" d="M846.64,690.52c-.38-1.06-4.7,2.13-5.71,2.77a2.19,2.19,0,0,0-1.24,1.77c.06.52,10.3,14.07,13.37,16a1.86,1.86,0,0,0,1.1.15c1.76-.61-.7-11.5-2.91-13.71C849.83,696.07,848.35,695.29,846.64,690.52Z" transform="translate(-250.38 -331.19)"/><path class="cls-9" d="M809,488l18.18,6.46a3,3,0,0,1,1.89,2l5,18.7a3,3,0,0,0,5.26,1l11.77-15.35a3,3,0,0,1,2.53-1.17l19.27,1a3,3,0,0,0,2.63-4.68l-10.91-16a3,3,0,0,1-.32-2.77l6.93-18.07a3,3,0,0,0-3.63-3.94l-18.52,5.49a3,3,0,0,1-2.72-.54l-15-12.18a3,3,0,0,0-4.87,2.25L826,469.69a3,3,0,0,1-1.37,2.43l-16.19,10.55A3,3,0,0,0,809,488Z" transform="translate(-250.38 -331.19)"/><path class="cls-7" d="M845.61,500.1c-.68,1,3,4.16,4,5.9l2.31-3.14C850.8,502.63,846.39,499,845.61,500.1Z" transform="translate(-250.38 -331.19)"/><path class="cls-14" d="M821.48,535.41s-1.2,8.84-4.06,10.44-1.66,5.52-1.66,5.52-2.6-9.11-.34-12A12.67,12.67,0,0,1,821.48,535.41Z" transform="translate(-250.38 -331.19)"/><path class="cls-7" d="M819.11,547.12c.78,1.15.78,2.51,0,3s-2,0-2.82-1.14-.77-2.51,0-3S818.34,546,819.11,547.12Z" transform="translate(-250.38 -331.19)"/><path class="cls-10" d="M851.17,500.85l-.06.06-.83,1.09a3.3,3.3,0,0,1,2.92.28A3.49,3.49,0,0,0,851.17,500.85Z" transform="translate(-250.38 -331.19)"/><path class="cls-7" d="M941.12,610c.24.1-3.1,4.4-6.35,7.43-2.61,3.29-5.07,7.18-5.92,11.42-1.28,6.45-.21,38.31-1.33,40.58-9.61,9.4-16.57,33-18.52,40.17a7.7,7.7,0,0,1-2.23,3.65h0l.43,8.13,4.78,4.4s-1.07-6.63,1.06-11.54c0,0,24.19-36.64,25.63-39.44,2.74-8,12.74-48.85,12.74-48.85l2.32-9.39Z" transform="translate(-250.38 -331.19)"/><path class="cls-6" d="M901.54,715.84s3,4.65,3.28,6.47,1.87,5.93,3.65,6.19c.41.06,7.33.57,7.28-.3,0-.66-2.54-1.6-3.71-2.41-2-1.39-5.13-12.7-5.13-12.7S901.67,714.38,901.54,715.84Z" transform="translate(-250.38 -331.19)"/><path class="cls-7" d="M961.8,624.09s15.59,33.33,15.69,39.18c.08,5-2.73,33.2-1.94,56.67,0,.84,1.1,2,2.66,2.68.88.41,5.12,2.3,5.12,2.3l.58,1.52-14.61-1-.21-4s-5.82-35.1-5.22-45c.09-1.56.85-10.89.85-10.89l-17.58-33.94L958.2,617Z" transform="translate(-250.38 -331.19)"/><path class="cls-4" d="M963.26,549.3c-2.36-6.29-8.53-10.1-15-8.92a14,14,0,0,0-8.83-6.31c-7.06-1.51-16.6,1.27-16.34,8.74-2.74,5-2.84,12.19,1.35,16-1.46,6.74,4.86,13.27,13.07,13,2.86,4.72,8.31,7.75,13.73,7.1a34,34,0,0,1,3.62-.39c-.42-.08,8.7,6.91,16.43-3.84C979.22,563.75,973.68,550.47,963.26,549.3Z" transform="translate(-250.38 -331.19)"/><path class="cls-7" d="M962.33,511.56a14.88,14.88,0,0,1,1.4-2.57l.61-.88a3.31,3.31,0,0,0,.17-.38,14.53,14.53,0,0,0,.06-3.32l-5.33,1.29-1.17,3.08c-1.19-.55-3.21-4.68-4-3.69-.87,1.17,2.42,6.24,2.68,7.62s-2.83,22.69-3.72,26.92-6.93,16.06-6.93,16.06l5.52,7s8.85-18,9.43-23.52c.06-.58.13-1.45.2-2.52Z" transform="translate(-250.38 -331.19)"/><path class="cls-7" d="M925.58,578.33,919,572.77s-5.31,8.85-9.56,16.06c-4.21-1.52-15.1-8.62-15.64-9s-1.73-8.35-2.66-7.93.71,4.24-.41,4.52-9.5-5.32-9.68-4.57c-.32,1.4,5,3.63,4.74,4.26s-5.36-2.86-6.17-2,5.12,2.84,5.15,3.4-5.81-1.08-5.66.15c.09.66,5.23,1.33,4.9,2s-4.32.82-4.16,1.58,3.34-.57,5.28.28,3.76.43,6.46,2.71,16,15.29,20.14,14.18C915.37,597.53,925.58,578.33,925.58,578.33Z" transform="translate(-250.38 -331.19)"/><path class="cls-6" d="M926.08,664.12Z" transform="translate(-250.38 -331.19)"/><path class="cls-6" d="M948.37,570.06c.42-2.56,4.39-9,5-10.54,0,0-4.6-5.84-8.33-5.4,0,0-5,8.31-7.86,8.59s-12.88.72-14.64,1.78S913.33,577,913.33,577s6.71,6.85,9.4,6.83a28.83,28.83,0,0,1,2-3.44c.4,1.31,6.65,21.55,6.64,26.13l0,0a13.12,13.12,0,0,0,18.86-2.43h0a104,104,0,0,1-.23-12.12C950.53,582.91,952.37,578.07,948.37,570.06Z" transform="translate(-250.38 -331.19)"/><path class="cls-3" d="M980.87,648.34l-30.58-44.2A29.7,29.7,0,0,1,944.6,606a59.07,59.07,0,0,1-13.22.57,2.72,2.72,0,0,1,0,.43c-.51,3.65-5.34,9.29-6.33,20.34-1.14,12.55-.45,34.35-.07,35.78C945.29,660.61,975.1,654.39,980.87,648.34Z" transform="translate(-250.38 -331.19)"/><path class="cls-6" d="M963,508.24s-1.93,1.29-3.56.87a6.56,6.56,0,0,1-2.38-1,6.73,6.73,0,0,0,2.23,2.37C961.63,511.69,963,508.24,963,508.24Z" transform="translate(-250.38 -331.19)"/><path class="cls-9" d="M925.11,499.13l17.78-3.67a2.73,2.73,0,0,1,2.51.77l13,13.23a2.78,2.78,0,0,0,4.75-1.75l2.12-18.81a2.93,2.93,0,0,1,1.48-2.24l16-8.81a3,3,0,0,0-.14-5.25l-16.47-8a2.88,2.88,0,0,1-1.59-2.16l-3.09-18.67a2.78,2.78,0,0,0-4.83-1.5l-12.31,13.89a2.71,2.71,0,0,1-2.46.91L924,454.39a2.91,2.91,0,0,0-2.85,4.33L930,475.25A3.05,3.05,0,0,1,930,478l-8,17A2.91,2.91,0,0,0,925.11,499.13Z" transform="translate(-250.38 -331.19)"/><path class="cls-7" d="M932,555.34s1.07,5.8.86,8.08.82,9.65,5.46,9.68.89-9.37.45-11.61a88.39,88.39,0,0,1-.54-9.17Z" transform="translate(-250.38 -331.19)"/><path class="cls-6" d="M938.35,555.8c-.07-1.9-.09-3.48-.09-3.48l-6.23,3s.22,1.19.44,2.7A5.33,5.33,0,0,0,938.35,555.8Z" transform="translate(-250.38 -331.19)"/><path class="cls-7" d="M929.75,539.35a8,8,0,0,0-3.28,4.4c-.87,3,.12,10.76,6.33,12.63s8.88-4.27,7.61-9.07S936.35,536.43,929.75,539.35Z" transform="translate(-250.38 -331.19)"/><path class="cls-7" d="M941.18,545.45c-.12,1.29-.8,2.27-1.52,2.2s-1.21-1.18-1.09-2.47.8-2.28,1.53-2.2S941.3,544.16,941.18,545.45Z" transform="translate(-250.38 -331.19)"/><path class="cls-7" d="M928.26,550.42c.73,1.12.73,2.45,0,3s-1.91,0-2.64-1.12-.73-2.45,0-3S927.53,549.29,928.26,550.42Z" transform="translate(-250.38 -331.19)"/><path class="cls-7" d="M963.94,501.17c-1.2-.24-6.29,3.76-6.25,4.36s5-1.94,5.16-1.53-5.56,1.8-5.27,2.37c.2.39,5.29-.68,5.43-.43s-4.25.55-4,1,4.58.3,4.58.3a9.85,9.85,0,0,0,.94-1.89,4.07,4.07,0,0,0,0-.88c0-.28.11-.53.07-.84C964.5,502.32,964.6,501.3,963.94,501.17Z" transform="translate(-250.38 -331.19)"/><path class="cls-7" d="M957.16,504.22l-1.9,2.35-1.25-.94a.64.64,0,0,1,0-.52C954.2,504.79,957.11,503.36,957.16,504.22Z" transform="translate(-250.38 -331.19)"/><path class="cls-6" d="M969.25,728.18h18.46c.69-.06.85-.61.62-.95-.49-.7-2.65-1.21-5.07-2.33-4.24.44-13.49-2.46-14.16-3.43C968.71,723.42,968.87,728.1,969.25,728.18Z" transform="translate(-250.38 -331.19)"/><path class="cls-7" d="M955.4,506.4a12.11,12.11,0,0,1,3.54,3.32,4.3,4.3,0,0,1,.56,3.27l-4.3-5.28Z" transform="translate(-250.38 -331.19)"/><rect class="cls-1" x="504.26" y="388.89" width="41.53" height="28.81" rx="6.21" transform="translate(-324.17 -210.26) rotate(-12.28)"/><polygon class="cls-1" points="255.56 76.11 246.26 91.15 260.53 85 255.56 76.11"/><path class="cls-16" d="M516.45,403.11l3.62-.88s3.81-4.46,3.68-5.7-1.46-3.63-.82-4.11a2.43,2.43,0,0,1,3.39.31c1,1,1.34,5.38,1.83,5.57a20.7,20.7,0,0,0,3.93-.69,2.77,2.77,0,0,1,2.72.89h0a1.48,1.48,0,0,1,.06,1.86l-.66.86.83.7a1.48,1.48,0,0,1,.17,2.07l-.53.64.55.4a1.47,1.47,0,0,1,.23,2.18l-.48.53.12.13a1.48,1.48,0,0,1-.05,2l-.48.51-9.65,2.36a6.89,6.89,0,0,1-2.75.1l-3.53.26a.76.76,0,0,1-.81-.59L515.89,404A.76.76,0,0,1,516.45,403.11Z" transform="translate(-250.38 -331.19)"/><path class="cls-8" d="M756.07,335.25c19.58,3.65,33.64,16.35,31.4,28.38-1.12,6-6.1,10.72-13.25,13.46l4.64,19.21-14.15-16.89A54.92,54.92,0,0,1,748,378.8c-19.57-3.64-33.63-16.35-31.39-28.37S736.5,331.61,756.07,335.25Z" transform="translate(-250.38 -331.19)"/><path class="cls-9" d="M765,361.68a12.56,12.56,0,1,1-5.89-16.77A12.57,12.57,0,0,1,765,361.68Z" transform="translate(-250.38 -331.19)"/><path class="cls-19" d="M746.79,355.12a6.72,6.72,0,0,0,12.12,5.82Z" transform="translate(-250.38 -331.19)"/><path class="cls-3" d="M858.68,357.53H822a3.35,3.35,0,0,1-3.1-4.62L827,333.27a3.36,3.36,0,0,1,3.1-2.08h36.67a3.35,3.35,0,0,1,3.1,4.62l-8.06,19.63A3.35,3.35,0,0,1,858.68,357.53Z" transform="translate(-250.38 -331.19)"/><path class="cls-16" d="M844.78,346.27,830.59,336a1.21,1.21,0,0,1-.27-1.7A1.22,1.22,0,0,1,832,334l13.06,9.49,18.82-8.32a1.22,1.22,0,0,1,1,2.23Z" transform="translate(-250.38 -331.19)"/></svg>